# WaveFront *.obj file (generated by CINEMA 4D)

mtllib ./Block_Face.mtl

v 100.00000000000000 0.00000000000000 100.00000000000000
v -100.00000000000000 0.00000000000000 -100.00000000000000
v -100.00000000000000 0.00000000000000 100.00000000000000
v 100.00000000000000 0.00000000000000 -100.00000000000000
# 4 vertices

vn 0.00000000000000 1.00000000000000 0.00000000000000
# 1 normal

vt 0.00000000000000 -1.00000000000000 0.00000000000000
vt 0.00000000000000 0.00000000000000 0.00000000000000
vt 1.00000000000000 0.00000000000000 0.00000000000000
vt 1.00000000000000 -1.00000000000000 0.00000000000000
# 4 texture coordinates

o Cube
usemtl default
f 2/4/1 3/3/1 1/2/1 4/1/1

